<svg xmlns="http://www.w3.org/2000/svg" width="600" height="713.546" viewBox="0 0 600 713.546"><path fill="#9c4b9d" d="M517.378 0h80.398v80.398h-80.398z"/><path fill="#d9e126" d="M517.378 97.461h80.398v80.398h-80.398z"/><path fill="#ea8c23" d="M517.378 194.922h80.398v80.398h-80.398z"/><path fill="#e61471" d="M517.378 292.384h80.398v80.398h-80.398z"/><path fill="#05b8a4" d="M517.378 389.845h80.398v80.398h-80.398z"/><path d="M19.325 0H0v246.505h19.325V0zm368.893 246.514h22.354V22.402h70.616V0H317.603v22.402h70.615v224.112zm-207.962 0c46.035 0 83.687-37.652 83.687-83.64V0h-17.95v164.2c0 36.137-29.553 65.738-65.737 65.738-36.137 0-65.737-29.601-65.737-65.737V0H96.617v162.875c0 45.987 37.651 83.639 83.639 83.639zm133.668 43.861h-5.578v42.718h5.578v-42.718zm23.764 11.408c-5.07 0-8.622 2.854-10.139 5.705h-.13l-.314-5.071h-4.944c.19 2.536.255 5.071.255 8.304v22.372h5.573V314.65c0-.95.13-1.9.384-2.6 1.013-3.105 3.866-5.702 7.478-5.702 5.26 0 7.095 4.119 7.095 9.063v17.682h5.578V314.84c0-10.52-6.59-13.057-10.836-13.057zm36.242 22.753c0-4.563-2.79-7.224-8.048-9.19-3.996-1.584-5.767-2.724-5.767-5.259 0-2.282 1.771-4.183 5.069-4.183 2.854 0 5.069 1.078 6.276 1.836l1.327-4.056c-1.646-1.075-4.37-1.901-7.478-1.901-6.526 0-10.583 4.056-10.583 9 0 3.677 2.6 6.656 8.178 8.684 4.056 1.52 5.638 2.914 5.638 5.576 0 2.599-1.901 4.565-5.893 4.565-2.789 0-5.702-1.143-7.414-2.156l-1.332 4.184c2.156 1.267 5.259 2.153 8.617 2.153 7.164 0 11.41-3.802 11.41-9.253zm6.836-27.822v5.703h-4.755v4.248h4.755v16.731c0 3.612.633 6.336 2.155 8.048 1.332 1.459 3.423 2.345 6.022 2.345 2.155 0 3.867-.38 4.944-.759l-.254-4.248c-.823.254-1.711.382-3.233.382-3.104 0-4.181-2.156-4.181-5.958v-16.541h7.983v-4.248h-7.983v-7.352l-5.453 1.649zm20.91-6.401c-2.09 0-3.487 1.584-3.487 3.485 0 1.9 1.332 3.422 3.362 3.422 2.215 0 3.547-1.521 3.547-3.422 0-1.964-1.392-3.485-3.422-3.485zm-2.79 42.78h5.579v-30.676h-5.578v30.676zm14.51-36.38v5.704h-4.755v4.248h4.755v16.731c0 3.612.633 6.336 2.155 8.048 1.332 1.459 3.423 2.345 6.022 2.345 2.155 0 3.867-.38 4.944-.759l-.254-4.248c-.823.254-1.711.382-3.233.382-3.104 0-4.181-2.156-4.181-5.958v-16.541h7.983v-4.248h-7.983v-7.352l-5.453 1.649zm38.781 31.373l.315 5.007h4.944c-.19-2.408-.254-5.197-.254-8.43v-22.246h-5.578v18.761c0 1.078-.19 2.09-.504 2.852-1.013 2.534-3.613 5.134-7.354 5.134-5.005 0-6.845-3.994-6.845-9.824v-16.923h-5.578v17.936c0 10.711 5.767 13.436 10.587 13.436 5.448 0 8.746-3.231 10.138-5.703h.13zm27.372-21.421v-4.248h-7.988v-7.352l-5.448 1.649v5.703h-4.755v4.248h4.755v16.731c0 3.612.633 6.336 2.155 8.048 1.327 1.459 3.423 2.345 6.017 2.345 2.156 0 3.867-.38 4.944-.759l-.254-4.248c-.823.254-1.711.382-3.228.382-3.108 0-4.186-2.156-4.186-5.958v-16.541h7.988zm-305.964 50.934v25.16c0 13.311 6.593 18.25 15.339 18.25 9.252 0 16.16-5.323 16.16-18.44V357.6h-5.576v25.35c0 9.38-4.12 13.565-10.395 13.565-5.705 0-9.95-4.056-9.95-13.565v-25.35h-5.578zm59.816 25.035v17.682h5.578v-18.255c0-10.518-6.591-13.057-10.837-13.057-5.071 0-8.621 2.854-10.14 5.708h-.128l-.316-5.074h-4.945c.19 2.539.255 5.074.255 8.306v22.372h5.575v-18.445c0-.948.128-1.9.382-2.6 1.013-3.103 3.866-5.702 7.479-5.702 5.258 0 7.097 4.121 7.097 9.065zm13.047 17.682h5.576v-30.678h-5.576v30.678zm2.79-42.78c-2.094 0-3.488 1.584-3.488 3.485 0 1.901 1.332 3.423 3.36 3.423 2.218 0 3.548-1.522 3.548-3.423 0-1.963-1.393-3.485-3.42-3.485zm6.648 12.102l11.662 30.678h5.323l12.042-30.678h-5.83l-5.957 17.177c-1.015 2.854-1.901 5.389-2.6 7.923h-.19c-.633-2.534-1.456-5.069-2.471-7.923l-6.022-17.177h-5.957zm44.926 31.372c4.88 0 8.302-1.073 10.267-1.961l-1.017-3.996c-2.026.888-4.496 1.586-8.49 1.586-5.64 0-10.394-3.103-10.52-10.647h21.55c.124-.634.189-1.457.189-2.6 0-5.642-2.6-14.388-12.675-14.388-8.938 0-14.389 7.23-14.389 16.48 0 9.254 5.643 15.526 15.085 15.526zm-1.14-28.01c6.274 0 7.795 5.513 7.73 9h-16.287c.444-3.866 2.852-9 8.557-9zm24.01 27.316v-16.354c0-.888.066-1.836.19-2.595.759-4.186 3.548-7.1 7.48-7.1.758 0 1.331 0 1.9.125v-5.258c-.509-.065-.948-.13-1.522-.13-3.737 0-7.16 2.6-8.556 6.72h-.19l-.254-6.086h-4.88c.19 2.853.255 5.962.255 9.574v21.104h5.578zm22.747-27.19c2.854 0 5.07 1.077 6.276 1.835l1.328-4.056c-1.647-1.073-4.371-1.9-7.48-1.9-6.525 0-10.581 4.055-10.581 9 0 3.677 2.599 6.655 8.177 8.686 4.056 1.517 5.638 2.913 5.638 5.573 0 2.6-1.901 4.565-5.892 4.565-2.79 0-5.703-1.143-7.415-2.156l-1.332 4.186c2.156 1.267 5.26 2.15 8.617 2.15 7.164 0 11.41-3.801 11.41-9.25 0-4.564-2.789-7.224-8.048-9.19-3.996-1.586-5.767-2.724-5.767-5.258 0-2.285 1.771-4.186 5.069-4.186zm17.104-15.59c-2.09 0-3.488 1.584-3.488 3.485 0 1.901 1.332 3.423 3.363 3.423 2.215 0 3.547-1.522 3.547-3.423 0-1.963-1.392-3.485-3.422-3.485zm2.789 12.102h-5.578v30.678h5.578v-30.678zm8.93 20.98c0 3.611.634 6.336 2.156 8.047 1.332 1.461 3.423 2.345 6.022 2.345 2.155 0 3.866-.38 4.944-.759l-.254-4.246c-.824.255-1.712.38-3.233.38-3.104 0-4.181-2.156-4.181-5.957v-16.54h7.983v-4.25h-7.983v-7.35l-5.453 1.65v5.7h-4.755v4.25h4.755v16.73zm34.472 5.831h.194l.444 3.867h5.004c-.314-2.09-.444-4.69-.444-7.354v-11.47c0-6.087-2.28-12.488-11.66-12.488-3.866 0-7.608 1.078-10.143 2.664l1.268 3.737c2.155-1.457 5.134-2.28 8.052-2.28 6.272-.065 6.97 4.565 6.97 7.035v.634c-11.854-.065-18.445 3.991-18.445 11.41 0 4.435 3.173 8.806 9.38 8.806 4.375 0 7.668-2.15 9.38-4.56zm-7.983.444c-2.79 0-5.199-1.65-5.199-5.323 0-5.957 6.91-7.035 12.992-6.91v5.324a6.3 6.3 0 0 1-.25 1.776c-.888 2.599-3.487 5.133-7.543 5.133zm23.375-39.357c-2.09 0-3.487 1.584-3.487 3.485 0 1.901 1.332 3.423 3.362 3.423 2.215 0 3.547-1.522 3.547-3.423 0-1.963-1.392-3.485-3.422-3.485zm-2.79 42.78h5.579v-30.678h-5.578v30.678zm28.39-25.924v-5.258c-.509-.065-.948-.13-1.522-.13-3.737 0-7.16 2.6-8.556 6.72h-.19l-.254-6.086h-4.88c.19 2.853.255 5.962.255 9.574v21.104h5.577v-16.354c0-.888.065-1.836.19-2.595.759-4.186 3.547-7.1 7.479-7.1.758 0 1.332 0 1.9.125zm15.526-5.388c-8.94 0-14.388 7.23-14.388 16.48 0 9.254 5.642 15.526 15.082 15.526 4.88 0 8.302-1.073 10.268-1.961l-1.013-3.996c-2.03.888-4.5 1.586-8.492 1.586-5.643 0-10.397-3.103-10.522-10.647h21.548c.125-.634.19-1.457.19-2.6 0-5.642-2.6-14.388-12.673-14.388zm-9 12.997c.444-3.867 2.849-9 8.556-9 6.272 0 7.793 5.512 7.729 9h-16.285zm-265.277 87.368V431.34h13.054v-4.69h-31.624v4.69h12.992v38.028h5.578zm36.37-16.919c0-5.642-2.6-14.389-12.676-14.389-8.938 0-14.389 7.225-14.389 16.48 0 9.25 5.643 15.526 15.085 15.526 4.88 0 8.302-1.077 10.268-1.966l-1.015-3.991c-2.028.888-4.498 1.582-8.492 1.582-5.64 0-10.395-3.104-10.52-10.647h21.548c.125-.634.19-1.457.19-2.595zm-21.676-1.397c.444-3.866 2.851-9 8.556-9 6.274 0 7.796 5.513 7.73 9H206.66zm41.25-8.556c3.044 0 5.135.763 6.464 1.457l1.27-4.246c-1.522-.823-4.438-1.647-7.733-1.647-10.014 0-16.48 6.91-16.48 16.35 0 9.38 6.022 15.656 15.275 15.656 4.121 0 7.352-1.077 8.81-1.776l-.95-4.181c-1.584.698-3.677 1.457-6.845 1.457-6.084 0-10.647-4.37-10.647-11.47 0-6.341 3.802-11.6 10.837-11.6zm38.653 26.872v-18.25c0-10.523-6.591-13.058-10.712-13.058-2.09 0-4.056.57-5.703 1.522-1.711.948-3.105 2.41-3.993 3.992h-.128V424.37h-5.575v44.998h5.575v-18.505c0-1.013.065-1.836.382-2.664 1.078-2.979 3.867-5.513 7.479-5.513 5.258 0 7.097 4.12 7.097 9.065v17.617h5.578zm12.603-25.605h-.127l-.317-5.069h-4.944c.19 2.535.254 5.07.254 8.302v22.372h5.576v-18.44c0-.953.127-1.901.381-2.6 1.013-3.108 3.867-5.703 7.48-5.703 5.258 0 7.094 4.117 7.094 9.061v17.682h5.578v-18.25c0-10.523-6.59-13.058-10.837-13.058-5.069 0-8.618 2.854-10.138 5.703zm40.928 26.303c7.354 0 15.276-4.944 15.276-16.29 0-9.314-5.961-15.716-14.768-15.716-8.431 0-15.212 6.022-15.212 16.225 0 9.694 6.466 15.781 14.704 15.781zm.379-27.824c6.59 0 9.19 6.53 9.19 11.724 0 6.91-3.991 11.919-9.315 11.919-5.453 0-9.255-5.074-9.255-11.79 0-5.767 2.854-11.853 9.38-11.853zm25.914-17.872h-5.578v44.998h5.578V424.37zm20.277 45.696c7.354 0 15.276-4.944 15.276-16.29 0-9.314-5.961-15.716-14.767-15.716-8.432 0-15.212 6.022-15.212 16.225 0 9.694 6.465 15.781 14.703 15.781zm.379-27.824c6.59 0 9.19 6.53 9.19 11.724 0 6.91-3.991 11.919-9.315 11.919-5.453 0-9.255-5.074-9.255-11.79 0-5.767 2.854-11.853 9.38-11.853zm31.173 36.001c-3.802 0-6.974-1.142-9-2.474l-1.397 4.31c2.474 1.647 6.53 2.535 10.208 2.535 3.866 0 8.172-.948 11.215-3.677 2.914-2.724 4.376-6.97 4.376-14.07v-17.806c0-3.677.06-6.212.25-8.367h-4.94l-.19 4.625h-.13c-1.391-2.534-4.245-5.259-9.569-5.259-7.1 0-13.88 5.833-13.88 16.225 0 8.492 5.449 14.958 13.057 14.958 4.755 0 8.113-2.28 9.76-5.134h.124v3.358c0 7.798-4.181 10.776-9.884 10.776zm9.824-21.932c0 .953-.13 2.03-.444 2.979-1.143 3.552-4.246 5.707-7.733 5.707-5.957 0-9.06-5.009-9.06-11.03 0-7.096 3.801-11.596 9.124-11.596 4.117 0 6.78 2.66 7.794 5.957.254.699.319 1.522.319 2.47v5.513zm15.582-29.72c-2.095 0-3.487 1.581-3.487 3.482 0 1.9 1.332 3.422 3.357 3.422 2.22 0 3.548-1.521 3.548-3.422 0-1.961-1.392-3.483-3.418-3.483zm-2.79 42.777h5.574v-30.674h-5.573v30.674zm38.084-16.919c0-5.642-2.6-14.389-12.673-14.389-8.94 0-14.388 7.225-14.388 16.48 0 9.25 5.642 15.526 15.082 15.526 4.88 0 8.302-1.077 10.268-1.966l-1.013-3.991c-2.03.888-4.5 1.582-8.492 1.582-5.643 0-10.397-3.104-10.522-10.647h21.548c.125-.634.19-1.457.19-2.595zm-21.673-1.397c.444-3.866 2.849-9 8.556-9 6.272 0 7.793 5.513 7.729 9h-16.285zM16.907 528.107H3.913v182.46H98.12V699.74H16.907V528.107zm142.93 91.772h72.822V609.05h-72.823v-70.116h77.154v-10.828h-90.148v182.46h94.48V699.74h-81.486V619.88zm265.145-1.083c0 28.694.273 49.54 2.169 74.173l-.541.273c-8.936-17.599-19.495-34.651-34.383-57.393L321.3 528.107h-12.183v182.46h12.453v-92.312c0-30.322-.27-50.08-1.623-72.554l.541-.268c9.475 18.68 21.928 37.898 35.463 59.016l69.57 106.119h11.915v-182.46h-12.455v90.688zm118.43-8.662c-26.257-10.287-37.898-20.573-37.898-40.877 0-14.347 10.013-33.3 39.521-33.3 15.703 0 27.344 5.142 32.219 8.662l4.87-10.827c-6.225-4.33-19.222-8.663-36.275-8.663-31.131 0-53.059 19.49-53.059 46.293 0 24.906 17.594 40.067 46.834 50.353 26.53 10.286 37.089 22.196 37.089 42.773 0 22.469-16.785 37.898-44.128 37.898-15.161 0-29.509-4.87-39.795-11.91l-4.875 10.555c9.477 7.312 27.885 12.455 43.587 12.455 38.98 0 57.934-23.824 57.934-50.353 0-27.344-15.975-40.877-46.024-53.06zM0 499.733v4.736h600v-4.736H0z"/></svg>